<mxfile host="app.diagrams.net" modified="2023-10-04T20:48:34.397Z" agent="Mozilla/5.0 (Windows NT 10.0; Win64; x64) AppleWebKit/537.36 (KHTML, like Gecko) Chrome/116.0.0.0 Safari/537.36 OPR/102.0.0.0" etag="ESk96agdLcYcN3REtzBr" version="22.0.2" type="github">
  <diagram name="Страница — 1" id="qJ4U4zMhdn-CDAFdfw-P">
    <mxGraphModel dx="1175" dy="1834" grid="1" gridSize="10" guides="1" tooltips="1" connect="1" arrows="1" fold="1" page="1" pageScale="1" pageWidth="827" pageHeight="1169" math="0" shadow="0">
      <root>
        <mxCell id="0" />
        <mxCell id="1" parent="0" />
        <mxCell id="n4FanAHKLCICYB6aXcxc-18" style="edgeStyle=orthogonalEdgeStyle;rounded=0;orthogonalLoop=1;jettySize=auto;html=1;exitX=0.5;exitY=1;exitDx=0;exitDy=0;exitPerimeter=0;" edge="1" parent="1" source="n4FanAHKLCICYB6aXcxc-1" target="n4FanAHKLCICYB6aXcxc-17">
          <mxGeometry relative="1" as="geometry" />
        </mxCell>
        <mxCell id="n4FanAHKLCICYB6aXcxc-1" value="Start&amp;nbsp;" style="strokeWidth=2;html=1;shape=mxgraph.flowchart.terminator;whiteSpace=wrap;" vertex="1" parent="1">
          <mxGeometry x="364" y="-90" width="100" height="60" as="geometry" />
        </mxCell>
        <mxCell id="n4FanAHKLCICYB6aXcxc-2" value="End" style="strokeWidth=2;html=1;shape=mxgraph.flowchart.terminator;whiteSpace=wrap;" vertex="1" parent="1">
          <mxGeometry x="364" y="500" width="100" height="60" as="geometry" />
        </mxCell>
        <mxCell id="n4FanAHKLCICYB6aXcxc-48" value="" style="edgeStyle=orthogonalEdgeStyle;rounded=0;orthogonalLoop=1;jettySize=auto;html=1;" edge="1" parent="1" source="n4FanAHKLCICYB6aXcxc-3" target="n4FanAHKLCICYB6aXcxc-47">
          <mxGeometry relative="1" as="geometry" />
        </mxCell>
        <mxCell id="n4FanAHKLCICYB6aXcxc-3" value="введення n" style="shape=parallelogram;perimeter=parallelogramPerimeter;whiteSpace=wrap;html=1;fixedSize=1;" vertex="1" parent="1">
          <mxGeometry x="354" y="70" width="120" height="60" as="geometry" />
        </mxCell>
        <mxCell id="n4FanAHKLCICYB6aXcxc-4" value="&lt;font style=&quot;font-size: 15px;&quot;&gt;y=&lt;/font&gt;" style="rounded=0;whiteSpace=wrap;html=1;align=left;" vertex="1" parent="1">
          <mxGeometry x="200" y="330" width="120" height="60" as="geometry" />
        </mxCell>
        <mxCell id="n4FanAHKLCICYB6aXcxc-25" style="edgeStyle=orthogonalEdgeStyle;rounded=0;orthogonalLoop=1;jettySize=auto;html=1;entryX=0;entryY=0.5;entryDx=0;entryDy=0;" edge="1" parent="1" source="n4FanAHKLCICYB6aXcxc-5" target="n4FanAHKLCICYB6aXcxc-20">
          <mxGeometry relative="1" as="geometry">
            <mxPoint x="260" y="450" as="targetPoint" />
            <Array as="points">
              <mxPoint x="260" y="440" />
            </Array>
          </mxGeometry>
        </mxCell>
        <mxCell id="n4FanAHKLCICYB6aXcxc-5" value="" style="shape=image;verticalLabelPosition=bottom;labelBackgroundColor=default;verticalAlign=top;aspect=fixed;imageAspect=0;image=data:image/png,iVBORw0KGgoAAAANSUhEUgAAAG8AAABBCAYAAADfY/omAAASjklEQVR4Ae3cZYx1NdcG4IcEggT5AQkECfAPD+7u7hDcgjsEd3d3Cy7B3d3d3d3dnX65mvee7MyZZ+Yw3zvnmck7TTrtbldX11p3V3fb0z0jynAYshYYMWQlHxa8DIM3hAfBMHhDGbxzzjmnDMehaYMRyy23XBmOQ9MGw9PmUJ42h7Ds//OiD3veEB4Cw+ANgzeELTCERe/R8/7555/y22+/lVdffbWcfPLJZeutty7XX399+fXXX4u6Tgb9/f333zX+8ssvXV3/+eef/0oW9Pg0g+fff/+9q0hf0Y/+zbouokGU6RG8n3/+udx0001lr732Ksccc0zNv/7664UBfvjhhxYjDKQ+f/zxRwEao8obQH/99VcXoDF2bzJoBwzt0NMDn3feeaccfvjhZf311y877LBDefvtt2sfP/30U2GD9ANEPAZbaAGPcg899FAF7bTTTivPPPNMoQxFhBiyE4rwDEaLB5ANCPEgz2JfAVgiXvQQP/nkk3LLLbeUU045pRx00EFl6aWXLgcffHD54IMPqo7ohQCd57766mR9C3jAAdrxxx9f3nvvvaqwUUh4hutkYOQYrQmYfDywHXnw0QavAPjll1+Wp556qnz88cflxx9/LGeeeWZZfPHF68DNYNEGvXbtDJJ2ZPlv0rSA9/nnn5cjjjiiKkOpKE14wHruVNCn/pLKx3PMBgG2L3kCGDrtgRNADQJ8X3755bL88suXu+66q06ZoQ1wndS7L31S3wLeu+++Ww477LBy/vnn19FNeB7XNGAaD3SaPvUjDwSykIkxReV9hQAewLTDA4gGgec333yz7LrrruXZZ5/tmppD3xf/UVXfAp6p8thjjy2XXnpp19wfIwXETgnLwAADEENmOmNoiwvTebsBD+3jdfjyOuX6MYXS2TRK3wwUNPqRDrbQAt4bb7xRFysXXHBB+eabb6q8Md6oEp5xs1Bi/E033bRsvPHG5YUXXmhbpICmgUEYjwPK999/X84999zyxRdfdK0y0WljJrKAe+2119ruq1OEPYJ35JFHlksuuaTLYJk+pJ0OvCD9f/fdd+X2228vE088cVl00UXL008/3ZY4QMBHNBDwEwFngB533HHlhhtuKF9//XUXnTbxSAPZAmewhRbw7H0sWC6++OKqHIV53qjwvkxpMaRZYeWVVy4TTjhhWXXVVcvzzz9fZVQvACT5yJ1UuXqAiMo/+uijcsYZZ9TtgsVZvIwH8vSXXnqpAnvAAQeUr776qot3QMxAIOeoCL2CZ3qJ8jFOp4VkGDJ8+umnxYxw5ZVXlhlnnLGsu+66dXHBgDyIseV5CJrddtuteqk6K2ib8NVWW61cddVVdZp84oknylZbbVWmnHLKMsUUU5RZZpmlbhUuvPDCukWSLrXUUmWyySarcY011iivvPJKBTFgZTCQb1SEQQ8eA3322Wfltttuq/tPU+VMM81UGPO5556rwKIRecdll11W5pxzzgrIHnvsUR599NF6QnTzzTeX+++/v7z//vt1MQLkhx9+uFx99dVFnXjPPffUeqdIgNpzzz2rp5tWH3jggcrfgE4AYoBs5lM/0OmgBo9BrPoczTk4sEBhfJtpezJAAs3I53XeX06EGNvtgGmmmaaceOKJdSWZPSta0TSaqA9BuT6lePH07bbbrvavXF+CNNOwckGafC3owJ9BDx6v4xV5B3sfzT///GXZZZftAo8xY9BMneedd14Zd9xx60kRLwtg6uUBJs/gplbtA54671eeKwISLcDQiJ7Dq9OgZVwMavDsr0xtvM4vHIxmkTHbbLOVFVdcsb7zlDFqvCdg8NJpp522LkYADhw0UjTaJQ+EgBd+d955Z9lmm22qFwfogBfjhY82ianrRDqowbP6O+GEE+qezrvs8ssvr2DMMMMM9b3mFw/HWrYQvIcBGdrixTvLYfO2225b92gAErob3HPKAiAe9n3Au+aaa2q9OkEfAVu77mW1oEN/BjV43nVO+hdaaKEa7e3mm2++MsEEE5SJJpqo5i+66KK6P2NIRgUcMG+99day2WablQUXXLBusnM6FA8JaEABlpiyb7/9thx66KFl3333rdsFfA0O9RkczZV42kk7GUYKHqNE4AhH8U6GGFrKaIzo+GqeeeYpq6yySl1tkgcAFiSmRz/1mGKtIq+99toy++yzl3vvvbcCbBWJD354iXQzHSZ4dvRmG2G7gZcTGOU96R8Z076TaQt4VnNHHXVUsc8xigWCZ9qQ71SIwaQMzVB559kqNI/HnE3uv//+Ze+9966/01mkPPLII2WBBRaoU+AVV1xR7rvvvgowPhkMTd3o6Nkq1g+0u+yyS7njjjsq+PofbKEFPFPVIYccUnhe9z0N4SlNwU4ERg5o+mNc78G55pqrnrAwMhozhF8D/CpgagWSgafOwsa0Sx+Akl8U0ja6WCDxQgNhpZVWKiussELd6P+bA/Dw6kTaAt7jjz9edtppp7rCy3TRFKRTwDX7jJFNjcA0NTo1yXRHJgPNtMkzAZdZA11+cNUWEAHDYAgdHiKeyrSzTUGLt74HW2gBj+fZnJpmMlVQigE7HfQZGRiah0kFMsnzomZZZNU2MqNhfMAoC0D4hQZPIOGFh6Ad8ICZPmrFIPnTAt6HH35Yzj777Lpai4wxVJRK+UCn+mNAxpMydGSQT1QHZAYOQIABBnp0aU9mz6FXj06woAlIyvBAp6042EILeFZap556aj0PpIgYA1C60yGGjxwBJDJFRmlo1QXQGB6o8tEBjTbAEQ0QvMMPbfIp77TuffXXAt5bb71V33duVlFUpGiUjfJ9Mf5v1esvhsQzniXfva75zGvIHHACYgALT8/aZVCYJvURndF5HoyhBTyrOd/rWSIHsAhOSbGTQX+MBwTyCAwa4yoPAE2AeFJo1CePX+jwik7hDbz0pV1i6jupe199tYDH81yD84s1wSkqDAbhI0MTvJQ1ZY3S6gKWNM9pI9WuJ/2aoKLx3MlAtsiZfvOcdKTg+f0sQiOWb6ZhOJwOjAUM0Ng/A8+zkIHUAp4TFqtNdzryHggT4LkawDtdlxiOA2MDry4H6/atpvAAmfd9r+D5AdO5oODF72QCcPKTTz55GWecccrYY489HAfIBn6HHG+88eoPyTDgPAAEpN8WE1o8jzf5IdM7L0hr6KTds1MXp/bDceBswFmAZN+Z1W8w4HVZSbeAZ593+umn18PdIC4Ved9wGHgLxM5SYInAA5rAA4UW8Hiej0xMm83G8t6BQb22Hv4zIBbIoQDAHOtl2wM03hhwW8CzYHHCcuONN3YhDnkNuu+3BkTyYaZds1w8Lp7mmfMEzBbwss+zVUCc6VJeDOrDNh5YC8TWwaCZciI4tIDnIw63iC1YEASsZhrGgE0+qTIh9M1y+dQl7zk0tbKH55SPLI2czT574q8sMuPVpM9zyoxw01czhCeaDOpmfdo2y7rn0YiRJbzQ8bDwUN+dLv2HZwt43nnAcwckjUMcxgTXkT3fddddV1en7vP7EdQqqdkuxkIvn7bJp14bNFEq+fQ9slS7Jg/tvSuaito3uT5IRlcI/diKRmzK5dneig6i6UloyoZvZOzet+e+Qtr6jdHs5saC40hrDGXkaTf0CzwduNvhGz53PdyhdDHIvRK3rWwrKBJBpZ5FBsoWROpZvZgXtXwM25ciGQTo8PccA0iB4J8hbL/99vVXdfdfyOyXd8vweFfkct8FuLZC4UfOTFXolac/7fSpLOW9yUw3Pxg7BPHNv1/6F1544Xqd0VrDQMOzndAv8CjmW25fkdqTuGbOA93tn2OOOepdS51TlLACxeTF5KNwDJe6GKQdBcIjfTBk8gaRe59eAQzm13H3c+aee+56PyWfeaUfXwmddNJJ5e677677WfKYPvMrur54YwZHEzRl6Tv8ekoNGL/Y2EvzNPtmpynrrbdemXTSSWs5OdoJ/QLPRx+mzHgYgXyIb3/oirnpiaIUp5Q8Q2lnWkLvmVEoYABQHGgio3mW/pugn7SR11emcuXKfHOwySab1H9PwkgBgwwu9/IEd0QB3ZRF22aMXDzSYKZPO4HN3FawqsdPH/oyE/jgxXVDtmwn9As8gmaUyQODEqYCnscrPQtR2Fc5BPPxho8VKewSrdG22GKLVWBjYG3wTx+9KRL+ofEcz1AW749neOf5vzL+VYmg3Ht+kUUWqfdBRx999Jr6RsGHLJkuGdlglGbqJJ87Py430a+doK0o4MUO9DaQZp111nrd0NTZTugXeDFQ09g6d6DtkuuLL77Y1Tdao8r3dOOPP369R+mOjKnM9GHKNRqNfMZBLw34XYxGkkHPiPHwPJNN8MxA+BksrvPxLH0GGKkt0uqrr17PE32s4l2ZQRCe0vCsmVLKY489VmccXyC1E8KLzPLkBKI+Xc+3ZrARbyf0C7x0GAMRxB3J3XffvXpdcwqRJ4wFjgNv4C6xxBL1EMB8DyieG+MTmlIxVDtKaAsAcjTbe9a/22a8baqppqrTuv+7YrCkH3SOBZdccsn6zjGNpX91jEvXgCkfj+adrsYDL/33JjO++ISXZ7K44LvPPvvUWaAdPvroF3hRmgA64nVG83777Vfna2VihIzALslmderdozy0hAGANsoZKIOjN2OoQ4dP5JIXwt8AefLJJ+vM4MtaH6q4m8rr0QDChyVWzRY4nqNbUz79NOXTNnyjT1+yNuXCS19Wt2uttVb90jenJ+3w6Rd4YUwZBre85lUWB0ZpvCDGj1GB7Nx0nXXWqdMmw4QGT8rEONq4VOtbBd8cWI25xSwVN9hgg65nt6QffPDBLsD1nxBQ9WMqNC25TCua3vUHXDzIZTFBh8gSefAzU/jwZaONNqoybLjhhvU7QavXZZZZppaTkbwGh3uf0Q9IGVR40U8//vuGf6FlSjdLkD1tokP3NPX9Aq9pEHO1dx2j5OWbeqmoM8JaWVrM2A/67j11hEsbtBSgmNMeCwxfA3lPJpX370aklv5Wt4DAg7HDFyjyTd4MeuCBB9ab1ZnqTOveyXiZYtOeLJEdX6tjizIfb0aenXfeuay55pr1iyLyiQC2FchqnH4Z1PiEJ3vQzz/nM3VG1ugfugz+gOhZ+H+B599b6NzpgH2UTr0vrMBsCzL96Ewe0LYTvMZyPSfkhMwIRxvhKUNpIKARAg66GFmacm0F9N3BQ8f7Gde3DqYrcnkfuxJPD96prdjkG6NX5v/hjwYPJyRmHfTkUt6c/jwrp4vo2SCy4jXw2VFbg4ONbBXkmzYJj/Qv7Rd4GtpYmmo233zzcvTRR1cQnbgYefm6hiF5j+nPf26wqHEkZOSvvfba1WgWCqYjwjWN1XyWF6SMzRB5lqcko6R9yoxmx3wWFUDTlgwWBv7Lk4HGSG7K+c7dEZrv/ciDB374NoFr9kEGWwQANKftprxoMoiU48vjAG76t06w1fCvU+wzebLv6A1s/QqRRd/N0C/weNmOO+5Yr0SMOeaYZYwxxiijjTZaTSeZZJKyxRZbVKMQ1tmdd4B3ogWLtm6n+aY8XstLCQZsAifGCIQXlTe9MKM49Gi0wcvIt0Xx/bp31FlnnVUXJaZb4Nlr6o+RTIVTTz11veJvcJEHrwQ80eJrADS9ymAAhIVO+iaXgB4fA0SZvEFElplnnrnaa6yxxiojRowo9pfyPgi1/dBPU395EY/I1i/wvFy9oG0qCeFfa/hadfrpp6/vEt/GCYxqRPq3G6ZLwFHCu8aoMwB4nhDFm8J1L6+Eja0E40SptNdn2vE8I9lXRf5Vh9WkBZNpKt7AmH67nHfeeeuBvAVE6iJLeDNoeCsTDEj6WnWqzwDUFsjkibGlQN5yyy2rPGSK7dhvuummq+9Tdkqb2km3P+m7X+AREAOjNqNQZwS1ZxM8M0LK0ctLMyLlsydU5gXPAE1Q8BTRJhgAMYry1ElTTkbBqJfXBl+p2KQlF7nVp39tklefIE/nAKxcu8isvkmfdvpr8sQ703PoyYpPgnLtxNCo8yz0C7wmI0JkiatcZMAApxM0jMNoQrM+9LXiP6DLxyDyaAisnYgfXsoT5NMGLZma9dpFaWlo0UUu+z55tOrl1dMlcmRQeCYHOgENHfFWLo2M5JBXJh+59AMwbdUJ+KVeGjlThib5foGHQYTRaTokTIwmL1BEXoeE9CxEgCgZI6hjoLRBJ+pPbLZVrj36GDVlMQYvEfHXPnKpb/ahffRAl3z6R092z+o8y+OhrTapo6e8cqkQfsmn72Z5PE+btEs+z039+w1ek1mVruEhzQ6ipDJ5sXuIgCnv/qy8p7JmeU/yqE+fad+k6y3frItckb1ZJ58YeUZGFz5N+pRJm0A2y0eW/z+awI4zFTyP0QAAAABJRU5ErkJggg==;" vertex="1" parent="1">
          <mxGeometry x="215.17" y="332.5" width="89.65" height="52.5" as="geometry" />
        </mxCell>
        <mxCell id="n4FanAHKLCICYB6aXcxc-21" style="edgeStyle=orthogonalEdgeStyle;rounded=0;orthogonalLoop=1;jettySize=auto;html=1;exitX=0.5;exitY=1;exitDx=0;exitDy=0;entryX=0.5;entryY=0;entryDx=0;entryDy=0;" edge="1" parent="1" source="n4FanAHKLCICYB6aXcxc-6" target="n4FanAHKLCICYB6aXcxc-20">
          <mxGeometry relative="1" as="geometry" />
        </mxCell>
        <mxCell id="n4FanAHKLCICYB6aXcxc-6" value="&lt;font style=&quot;font-size: 15px;&quot;&gt;y=&lt;/font&gt;" style="rounded=0;whiteSpace=wrap;html=1;align=left;" vertex="1" parent="1">
          <mxGeometry x="354" y="332.5" width="120" height="60" as="geometry" />
        </mxCell>
        <mxCell id="n4FanAHKLCICYB6aXcxc-26" style="edgeStyle=orthogonalEdgeStyle;rounded=0;orthogonalLoop=1;jettySize=auto;html=1;entryX=1;entryY=0.5;entryDx=0;entryDy=0;" edge="1" parent="1" source="n4FanAHKLCICYB6aXcxc-7" target="n4FanAHKLCICYB6aXcxc-20">
          <mxGeometry relative="1" as="geometry">
            <mxPoint x="560" y="450" as="targetPoint" />
            <Array as="points">
              <mxPoint x="560" y="421" />
              <mxPoint x="561" y="421" />
              <mxPoint x="561" y="440" />
            </Array>
          </mxGeometry>
        </mxCell>
        <mxCell id="n4FanAHKLCICYB6aXcxc-7" value="&lt;font style=&quot;font-size: 15px;&quot;&gt;y=&lt;/font&gt;" style="rounded=0;whiteSpace=wrap;html=1;align=left;" vertex="1" parent="1">
          <mxGeometry x="500" y="332.5" width="120" height="60" as="geometry" />
        </mxCell>
        <mxCell id="n4FanAHKLCICYB6aXcxc-15" value="" style="shape=image;verticalLabelPosition=bottom;labelBackgroundColor=default;verticalAlign=top;aspect=fixed;imageAspect=0;image=data:image/png,iVBORw0KGgoAAAANSUhEUgAAAK4AAABFCAYAAADTj92vAAAgAElEQVR4Ae3dBZBlt9GG4c0fcBInTirMWGFmZmbmxGFmZmZmZmZmZmZmZmaG89ej8jvWjmeza2d3DXtVpZGO1Gq1ur8jPnc2/fvf/15y//nPf4quwpUGDtAa2LQC7v5vn3/84x/L73//++H/8Ic/rMVL25XCP/3pT9tkkE162Rm821RqRfQ/aeBf//rXkt7p/iUvecly2MMedjn84Q+/HPnIR14Oc5jDLHvsscd4lu5ZWNzz7rvvvpZe/uEOd7hRRh7aaOQfGDyZz3GOcyx/+ctfNtPvX//61+Wf//zn0Fmzgk0zBSWuQDxrZMfG6RqIX/CCFyznO9/5lm9961vLl770peU73/nOiH/jG99YvvnNby7f/va3R5r02cufn9F97WtfW6Tjpeycf0CPk//73//+0Mnvfve7AVQWAFaernhuBdwdi80Nuddr1FEA7kUvetFhnL///e+jTMaK1nRi7nn0QMr/9re/HT2UOJq5Z6rshkIcQBMB849//ONoCxH/9re/rXWm6Uv6mCoglpiyDqBtOkiJBWD0/trXvna54x3vuHzoQx8a7WMHAJU3Gw0ogZqN5H3ve99b7nOf+yyXucxllpvd7GbLZz/72TUA44H/ehBn3wNqqF3aqN1cL2uAlU92bizOUuJIWf3ZKRpgDAZ62MMetlzvetcbIKu3ZTD5ngMfo2XYH//4x8v73//+5clPfvLytKc9bbnSla603O1ud1s+//nPr4E7Yx9QQbqRXGSewUk/tX89RtcWZwpxIXqnWG8XrwRAH/7whw/gMpjn2WWsjMxGaH7+85+PufBPfvKTYa9nP/vZyxWucIXl7W9/++ito0Nb2QNDmA7CYCCmBz6M0tHaHDfiOXNW4iq+fTUAVAzzyEc+ctlzzz3XmEtjJPZgi+ySUTNg0wbPX/3qV5drX/vay5ve9Kblz3/+8+Crt0KDx4HFa2PtohBtK01YO+StATfNyVy5Ha8B89jPfe5zy4Mf/ODlMY95zFrPyFgBDmgDLqDbJgJINirP889+9rPlTne60/LOd75zsQ+awXd8K7ZvDdqkbUAqTke94NLndo2pgupT0PYV5YDDbX37POcBwjaMraRAsyWdKLP+5Q5Ic2vX1zfzq9573OMey93vfvdhkHjMvNHV01RGPmMKo/3CF76wvO51r1t+9KMfDV4MXN5GcsxyFt8S3UbpyVLZwjm9uDBZottSiFbbvIyzo4PaXPo+etwyDmqhxnMplHF5b/UnP/nJ5Ra3uMVyiUtcYjFvpLiU2NsfUJSZez08AX/mL165DKd8w6A8z3e5y12Gx5Nhkic5C+X1QkVTO+x3vuY1rxmgNU2QX546kiNe8nLRoVGOq53ReK5M9Gid5v3whz8cuxsWi+qmF3nKCHm86Tgetd3IYK7O01+8q3dr4S4DXIqgnIYfcQr+7ne/u9zvfvdbnDqd85znXH7605+uKZFymzMqDzye4wVQxQvxZ0AGQs/bl/ScE1f29re//RjiyeIZCOPDmOTj8ACC8qSrB9+HPvShyytf+crlN7/5zaDHC38yKFeZEVmWkSefR4sv2tqyng4Np040eJLzLW95y3LSk550nPCd+cxnHi+PdDIB9Vx35fCh01/96lfjtPCSl7zkcp3rXGd53/veN+TQpm11uwxwKZIRMkQKYjSKu+xlL7uc97znHT0XRUebgRmuuJBx3CuIX3noeOnS8Bev/pnOvPTOd77zoK+M0JwVHQfA5JHO6ACK569//evlSU960vK4xz1upHl+97vfPU7LKqt8ciSnsLrSgVAaEAtzySosnQyvfvWrF6B71ateNV58R9ZGK7sa9fq9wNWVTL/4xS+WhzzkIcvJTnay5VCHOtRylatcZfnIRz6y1t7q3lq4ywA3MFIIZQJSQ9nHPvaxsZ109rOffUwV5DOA3mPu6SgfnwyJjoHQAEQ9l7JAXT4a+bMMQGthpofn8FBf8QCGB/CSV1zdjnNvc5vbLCc4wQmWox3taMtJTnKS5YxnPOPy/Oc/fwEMtOri4iNc78hFTiHelYtWmvh6XZlW2Xv+5S9/OeTRg17xilccuyMf//jHR9qsq7levbLpwQc+8IHRWVz1qldd3vve947209+2ul0GuBTJZYxChvnUpz61XP7yl18AV08KQM985jPHpr4tple84hXLTW5yk7HRb9O/6QRA4YtHoAUC6b0UnsUDh3o9X/Oa11we8YhHjLLkkgZEQOIU7b73ve/yhje8YfSsFl12Hm54wxuOew3AaUH2nve8Z4wW73rXu5YPfvCDY75ZPYFvPRDUI4/cpkl4fOYznxn1Sycfz9W2dKWNz3ve88a9Cj19L4d0enHfQu87T6fwrD7tq/6vfOUrQ5+A6zClutfLu6XnXQa4FMMVAkjDsMXZ5S53ueXc5z732FkwfJ/1rGddTnSiEy13vetdxxBoHqmXYZwXv/jFwwCMEFAYmYGFeQbN+MLqR3fd6153efSjH70GFCDwwuixznOe8yzHPe5xl5ve9KZji8tUxgLsjW984zh4QFtdeIrXW8rTLnJtBAb50snjpO05z3nO8ta3vnW0J/m0i0v28bAs44V10meaAPDVi+71r3/9kNsLrwfGQz6vPs9k5Dx/8YtfHDq/2tWuNl46PMi2rW6XAW5KzOgpksI+8YlPLJe+9KWH4t2getnLXjbuABiKnWzZKjOHfPrTnz4WcA960IOGUSkZPzx4deArbt52y1vecvSq0gJLRnToALho8UgeW3J614td7GLLaU5zmuX+97//8uEPf3hMAZJdPVy8PMub+YjLj7ZQfdJ5+8hO3cxN5fPkUJabadG7bWaKc6ELXWjIhJbn8LBIe8ADHrB2w6v68al+4BV3E+zKV77ymOPqcaWh21a3ywFXT5QiC/W4LqvYVbC1Q+HO/k93utON3tUQpxezKLnUpS41wIQmo4kzNn4MaO4KcHoTc0908qoP7bWuda3lUY961BpYypeH/oUvfOFy8pOffFzAAWZ18Bm4Z726NM94AIaw5+iStXqkm24Y+k01PMcbDUeWyksjx61vfevlbGc72+hx8awXNSp40WzxmYIoS7b4Bkj00nQQV7/61Qd49d7VE93WwjXgKrjepRDp6wWIdqMKo1U+p+E9b1Qmuh0VqpOj7AxEiZ7Nce0quMTs1pV804XTn/70A0At0mzyA65eRTnGydW+l770pcsNbnCD5VnPetYYihn65S9/+Rpw0b3tbW8bUxBbSp4rOwPFAkxd5roAg4ZLt3N7kkFYm2pjZYDI3NkCznBuivDABz5wyOp22nOf+9yRJt/c2nXJpjp4aa8eFzBNlyyopDcl0ZZTn/rUQzdefi96i81kwKO4Y2rAvcY1rjF4aV9tGkRb+bMGXELkYqKi4vIpNgVGi0ZeChXnKxtdCpVemfJ2RpiM5ExB0rQn4J7rXOcaPa50c1u95Yte9KJhAG13BdGUQo86GzX5412Ij2mI+ao0PKRd5CIXGYssddNLgE0vaGyJWYy5smjXY9Y7Xmi2xaFVlrymJoZnc1Te9p9RRQ9qO0uakefmN7/52nA/28ui1BzX3WHHy/LwVocX4QxnOMPyhCc8YW2Oq23yOCEZyC3+9a9/fTPg4hXttrRrDbgKVXCugGAJJ/QmceJcxhAnaAYtXzphU7TyGWow2El/tI0MgUO1tbldBYZ0GoROj3uqU51q7ChoF9/+pV5Q2fYs41Oo7Rniy1/+8nL+859/beUuHXD1cNEol1M3HZr32fJS1sIsueXzdLgtDm29oh6w8vhZnOlh3/GOd4z2kYPs5vPRqUM6euXJfeELX3iMKOTk6ebxj3/8ALRFbCOUMsmNT3rB27rBTo5Fsd5bnvRtdRsCN2FjJqQoQhBUBQCoQeIpHp1GBGbpvDIpTR4atDvTqTc5Z5nFreTdaQVccy+yWYTojRjW3qO2W9Vf/OIXH6COV21Uhq+9QC0uzULk//7v/8YCi94sbgzX6SGd2Yqz1eWQAVht8KvPAgqYOpmawbA1HSbnTMce5HL53JQGcOmBHNGrA+Clc555i047IhaXZEVvX9a1Srsun/70p8e2nqkGefXS4vjAAHr1mAc7NbMt6OCETPvGrQFXoYTWqMAnzqvMqQkBCpXxXM8zV6yRCSrdc/yFxecyOzI+A1dbtImz8DIFME2wj0tm7TP3OsUpTjEABFA225/61KeOBcgd7nCHtZGHwmeD1wb8gZQ35zvEIQ4xhn/05q7mwukBre/ETEF81QCwnnnzQHuk5tdvfvObBxi0Bbi35rKbetjJs3ihaQzetsOksxHeXLKJoye3fCC1h2sHgd6A2y7IBS5wgcGH/tCZD9/udrcbLz+5Z4e37TBg1z6HEdL2jdsHcGOgoYSi+IyuAcVV0htZGfmMTnhOOg8c0SgP6Phq4M502qReRhAnk7mWxckhD3nIce6uN7G48rXtbrvttpz4xCcew6AtMNtjvkQ9xjGOMba69Cb44KdN2iZOL4GjfD2MY87jHOc4o+fWg6JLTy732GWwMnfg0UHIbW972wES93bNe9VRmRHZyp9ssFEZ0xh70oDLRulEyPXMToGXfR2IGIksZt1XMEf2Itq/lU8H9HqrW91qyG7HgRzJbsfFjklfHh/veMcbawoybKvbDLgKqaC3huCGA5vLVseGONs4eh9OPiBo1AwIc0ab56c97WnHAsdb5etVPRNPERonvrMcWcmZMdRPUQBkvmXYtD1ktcuLG/aEehkgZWjPPMMwBF0J40t/1SNNPUJtBlpTBrsKaNDSATl49Zh3GmKV4fXWdhXk4VE6vtvi0M+06qtuL45hXN3oNnJk5DkhOuXpjZ3piC68aDBAF7wXGcD1vOkoPl5SutRWnj5/8IMfDL4bybBR2gBuDBOOgrw5tk9soptE3/Oe9xxbQ+aDGhxQ0RKScoTKWGEyji0Sm/aGFUOxN08j0OGxJWVtJOj/mqauXjK8PJM9I6YDzzwnREfWGYCloQGEDIo/WmlzGfm8lfgJT3jCMacsnwzJUZ30gwcAxFudnLAXZSRs5U+y4lN58QAmrn71ceVp71wGPTqOXsjoGX+h543kxQP9zCuAz2n49Dwq2cqfcZF8fQHPzr5ti5hAA58e09spT6MIWQMyql7JathJD+BrkB7bB316G0MhGunK7kxHbvUWkrlnsswyiQOW9IBSe1Nw8uPHKcP48RHy0Vef0UsvOgMTD3Q8V13VH09562lHgf/yB098lMO3OqovfrUHK3nqlJcMhdJn+4vLi7cQTX7mJ46nPHWkL2n8vnFrn6dXgdCiwP7hnnvuOY4/DVMc5jXKM+MGUHmGC/Owhh4NIiR+NvPd+LfBPwtqkWFy7nKGIVoZUxH7gbZYXMaQxte4wiHU9Ids6IS5mbY8oR6C0uV7psTK9SxPmrC4PG2aHZoMN6eLV1b+/Fx6adUziKY/1Suc3frnOW+Oz3Tknp9nui3F18vlufbX7sriLU86T1ec9OLRCtHO6dEJ0xc6vKTFV7j2lW8EjAkwhncLA73lE5/4xDH8W4XKV6EQcDMYxlyGrRK0emtTBWDU25RnnqQHcjRqom+1ar5puuGOgA1zcyE8eeWKj8rWDZ3lC3MbySUPUHn5PL5bc9FlnHqMDFD61vis8jfWQPplP7rlSivM/mtzXMQyTZwdfzo1sjVji8Zpi5tTN77xjceeJ7A2xwFgzJStwvltQWcf0vaSnlWvjI4HYr/iYg5tIWdj3nGjDWm9dkJG7zmQaFTpyeAZjbBGF1dubnzyxkMobWs+OvU0V+sF0G7pW+Oxyt9Yz3Tby5+e51Ccp+NNKbqeU69qS8YOQjfarWotzoDLvBeoOIABRCFjqLSK8eX1oEDrModpRBULOVMNdfpo8EhHOtLyjGc8Y2yrJCRQBAi88cxJn0EgP1rpaKVxnjn8Aro09VRuEPyXP9EiEU8WPPGojv/CYpX1XzRAn0Zxesy2kYeDbLYpQgQKOh1ytm6o1iMi5J2Y6BnNVW2DSOPKZ0hxIWDoac1fXTBxMcO0IBo9VWBXxovgwrb7r44MleXQEJhcPHCUZvvEBWhbKW2p2NQ2LeGlmzN7WTjlkxUfR7uu9bUNpuy+8craYVGPcnQibd/wWNFuXeewwm4zcNly/ASTRA7KbdnYEDbPBQ7AZmhgsKGs1zXk90bEMDoVtQ+sjB6ageSrMPAGRHwA136g2/A2+i3OoiM0nnr2eDiW9UWCz1YcBhz/+Mcf4VGOcpTlWMc61nLsYx97EXfy5QbUDNjkdqRbeSH6bfVHPepR1+pwUOFFP/rRjz7K47Xy/5sO2DRb6JyyGYzCxQCuPwDBuHozvZeTEMDQmyAEXEO+0xuLKD1NTISBFg/0vJ0EoHEsKH2uPLDHw4a7fV9Hrm4eqQuPADcq26vXVFaeUM+M77w3LJ28efnayM38pCeHsDZUbkuhl8hIojwaL1R10h8+K7/fdNBoCg/pn43pl+3YMVuOXQVEAVjv5+KDlb7rdDkg9jm1+WqGwowLZOIqV84OgQvKDC2fMe1QWHjZD5ZufgsAhm0Xp52b+/AP6AlMJnWhqa5CdYnjja70ypBjLjfTkEVeTtl44bcl73jUaOQQwb60nl6ox3U07Fkczcrvex3Qn2N101GOnbIbHPBsw1Zri7PZcM7Kz3KWsywukxjuDd1PecpTxl1Ulz0YHQPbVi6MOKAwrfAC+JrAPVIGdB6t9+btUpgjK9NxIbA6ZXM7yLaXW0qnPOUpB7hdIbQoJHxACmAaw+dK7y2NXhhtNMpI72X1POfFc6PQ7ohL1B/96EdHO81rtdeBi7Bni82V3286MJpbd6zvuAJwdtkExRzjcYwKqHpMdyXdvXTlz/zWzoDDCDToAdx80qUJl0gYzxHxMY95zHEmf7CDHWzcihIe+tCHXq5//euPBRPgo3W5xVU4c2a9r8MG9fkBN9tiFlYANstXPHlH5l5/NgLgnDaXmdMV1ya9dE5cWnnirgC6aD2/DPLnlwsdn6LVI47fnFb9q3DzrTE6ok+4pJumCnBAr9KEA7g9MIK4woZv22FuAfkKwFFuFz0Az1Dv8xIXi/U05plOxewOuGvK66H0qAyOTm/b3Uw3iQDW3BZA8TRNcb/BtT4XNALEQM8O/qPdlEMO7U9RnsXla4cRRts956JHJz6Dt7LSlWm4q+wq3FsD9Mbm6SwAp1Pp5Y1dBQpN2diIS8toPZensB6kMLoYVxEePDfXUTq+GXQO8WFgYeUHkx38hzzqTRbP2gaoXmI/1eQLYBfDbReizaWD2i59bh9aHt3ObFPyHRhC+rIw97NSdERfTRk80y1MCDc7OZMwKxw4KRpDBXnxnOHdc4CNDp+AHb1QOh6c+AxM6erKAUvylLajw9pCllk+bXGK6OSQM3+1+JLOkTtQatNGbQ64tX8UXP3ZhwbMb22HZQMYY4vwU7h2VwFhCs9onqXHhIECkzDgRkcKtOjkCT1zDOq5OsQbFirXM94z7WCwE/4kOxl7GQOkL3tvdKMbDSkA1woYPVpyk5fvZZx5JHq66HkVbq4B+rFva2HP6RjoMV1mC3RjqkDh65XqmVcIkOYeQzqmQnn8TCvOVVY4p/WsXnwrKzQ0xDu6wWwH/1F3L0xxoReQN02YgavH5QL4LGvl8eM8z34krv7sQwN05CDK1iIHG/RKx3QJG2whvtk+LuIMIEQQyuWlfOnyOczqZQAR6HpGj1aPJOwZHR8Pecrl0HHxKn1HhupMHmFTFem8Ez3AlWefWo/LebYwdTnJ3NcetNCCk+447eO5dDMeVn/2oYGmCmWk/8BLj+Jjjkv5KVl8Vm4F53T5dgCkcRnGc/T1pgkglIYWTU58Pe16mmh3dkg2Lw8Q63F9j+aNtzuix5XvlEe+DwZdTvLfIfsFGr0HXWlfbU5HO7stB5b6Am76on8+/IXNNeDqObkKIEBM6bw4QOXQ6Wmk58R7jo9Q+SqM1rOXJZ7RlV+dPe+ssHarb447vnawwrU4Izul+tVFnyXZ/3YQY8fB6Y+f3pxPH9Gml53VngNbPYDrHGB22YG+4UI45riIKHRWavH16TPDQDqnbRTfiMeW0ipf/T1vj1Cj178QlDIvrtQrzUulfcDmGXDXz3HlW0wEWgpVDnjROy103xideuc2eenVy6ULIR659bLiI3/mo76e546gds38qmvmjw5fIT7qzCWz/OqIVmik4ZKJrtbXF69C9zyiwZPHi+fqcaMXRldcuAbcOVH8oOYoNQUxkuf1hsk4QjSAgMa3cve+973XjqD1uFa+gGfKBITo0CvnSNsRuYvxDm9SfCDzVSyeDndcHXVRx1G6UzmfN5mOKMPA+M28kzH7yOPR8uUL5/YGFodIftDPQYpfydlzzz3HPREHPhw6o6+TUNMjP8vk6xW/HG4P2wFS9WiPm3q+6HYU7k61l9hXLa7B1ga6Blh681sLfuSO3qwL7Nl2X5s+twTc2lu4ywA3w1EiMHhm2JTLCNKEgCAvA/k030V65fiAG089j/T4mTL43MmXJE4c1RG43Mkw5fAbC/KdKLr74ATRMXdXRuMVAJOX4eSRs/hMi16ediqTXEKnodpiauPCkEv7PoYFTqeCLbS9TMBoQYrOC9Y/dzGSALl6vAT2t20VunfiA1sXpRzlu9eNhvdiu4fiKxprA98zaq+2Oml1WupODHlXwO3VnELGC5SMzWf8DBywS6d4397pcaNvjotGL6GMPDx4+egZuZ8pCkRA4cczLPRcZNLjMV4/LqI8NwOVDOTu5fKMTsgJ1V+YHNJKt4gEMPdFzLv16np64NXzumPiGN5oIc2P4Hnp0PEuQrkv7csYPw+lzXZP/Ai16RD+ZPYS+mE8L2HyeCFcmHLH209K+Wkr+kFbOWW5FXCHGjb/w/gpEwgyPuNSnDwhQwUSNH58rh+6Q2sYdP0OPwZULmAxhC+WDbPmv/jhxemZ0UlzvVOP68acnofDJ9rkFPLkmGUuLWB6xpsvTciT0T1rgHnsYx+79sEqni426S2BEZBt5/lFSldYDeXKk9dQD3hAbvTxbMrjl9tdwnIBy/SC7tQFqLPsyWvq5OqqaQXgc/iThVsBd6hh7z8ZgAIBgE9hDEtxKRr4pCkj3c04xkIvzTVGwAVEZdDqeT0DtWmCC/QBzXxOvN4ZuPTEjGeoNsTGGw0XAMXxBQS9mN7QvWZDO+/3zDzz4oZo804y4cnXYzpKNTXRq2pXeihUN1kcAPjPOKY82quN+PipJh/O6rWB2iiBzgvhIwBTBJeqAFcvq4x2cPiIm65c8IIXHL2/S1rpOLoVcIe69v4TMKVQUkYNcIG29BQqBFwLmsDQHFdZ5VqcAZc5nt7HPBAv5RkReMggDR/Dst6vhQnwJIMQWJXlLIgM1V4evZte2kV/P23l6mlenulAU4Haon6LJttMPvn30pAhedSFhneZyOdPvhNERwYeLy+l+bmf4QJc5b2U7mObRvisC+jNYedfPNIe5dXjYMZvs9mhMVXILrV9Bdy9MTtiwEo5jCDkGI8y9SyM4sCA8eSjlw+MjMg40tAzil0Fz4HL3NWQ646y650MoueWDrQcoAcCV0HNBYHQfA89z8DxnGVV3jOaeNQmeWSey4qTX53ABcxGieaupgXRkNPLoSc2vTH8exm0wwuFDn9zXsC1wEOPrxdUCJAWcn6B0QGMqRWaZBWS10JMz2yu7Fcca3Oyr4A7oLL3n8DKkJTEUax5luHTJzh6iwwlXxnbQH7IhOJL01N0VwE9PrZ1AFHPZgjE1zzWytzQyemZgcMQqwd179j82QreCh2YGDKXUZO9dM+1QVqgSEZh8fKBU1uOeMQjDnBZ1ZtSmJd6aX2NDdyA6MsXR9q2tbTNC+Dl82LazrJDIM2wf6973Wv8sB090C0eelMvOx2g0y7AxtuLbevPVqGRSaehs6g9K+Bm5b3CeidGZ1SKMqzutttuY95G4X4yk6IDCmMYAg3/MxjmXQV87R74EmTTpk3D+0XGgx/84ONrX9tIDbl6JIa3x+sLEAshP7jiKxBDNGAA045w5DRH9hMAfqvXT3z6aVVfpwCz4Zuc2mzk0R7zVmW8bF401zpNV9DRn4MWH7d6+SzUmmr4gsXcF50RS3vR2Af2643SzJUdk3t59cKAza2Au4H1A2RZehFvvJ4QYA3fpgB6oXoAvZTFVoAHAD2uf9RhiPTlc2AAWEAAYKBA49+WKstbQBmGzTP1VgDBqIZNw6+eWb3zy5Os+zXUa+vxOLIDisMHYCWnDz9NVUwL1I2G93Gs/V0jix9qUcZ+rovejTLiRqsWbUatM53pTGPujp+XHbiNOnYSTA20Tc9rHuxfYvlErKmVelfAXWdpc1NDGaVTaM+BSpre7ghHOMLY6qFgwDQH1TNQasY3HTBfVAbw9Zx+fMQmugMGW0ye8bNtBDy8uDQLG70TntKaWqiTQ7u9nPYFSKGXFHDISFbDud5OunyeTPTkBa49ZLSgpMOmW+SXpqweV5vReSG1RTvwMTXS09KV59L0vPLQJecKuOssn7KBjaOsPCVTHFDtvvvuQ8HlWfXrFVM4OtMK82G80DGg9DzjS+fQqDvglyadl463MrnK9rxfQ3zUzSVbvNSXDNrPJ4+RKHp04uSsnehKS3foxKNJL+qT50WtPqE2oxVPPnQr4GahvUIKophAIp4iMwrg+ql8PQ7DoDHHtW3FKIyhvNW1ITYafMQLi88GkZeb6ZIjWvyV3x5OPWSe+alPW9Qj33Mgq43SOGCTx0krXblZj9LVgVYe55le8ZQvPpevTLzlK7MC7lDf5n8CKOXy87O4lb1pgVMjwyflAq45KQNkHAcQ5rVcBlIePeMVKiM9J50Tql9ZTtiz8oFlZG6HP9VTmwOd9OqWV91tYwU6NLWLONEmWnzndlUmvcQLrTxOyMdP+RVw0+peIQVSPkWlYM/SU55h1TC5x9eagMsAAAGwSURBVB57jPmaXQALF0eyjI2Wku0ImOPqkZTFp6kI3vnKRFNdnhkyY1Y/3hx+28vhXb34J1vxQnWK87bO0lFpc744vrnaGa/ag0f1a6t8a4tZHmloePQr4KbVvULKTUEUnyFKQyZuBQ64FhvO5W3hUChlU75yDiAA1+JNXvlCPGYDxld5+fLwAPTArkx85G9Ph19tDzDJok6yeEYjztWOQjxqV7SeS9OOeKONr9BzfIVednVJj7Z61L2fgUuYg6KrXSkppaZ8bRYHRqc/bnDZzrIxn5JTtBV5n6rjMxsND2mMI1zvpNXTlhdfZTNyef9riCcn1NslX+m1zbO4UHsqMyJ7/SFbeeXXxsAoHR1fHUIewEtDp2z1x8cuh9+um91cpvTxsWQPQox2ZUdJjOOzGz2vHjeDbqTAXVlX+2fb134QJKMU7p9C7V91a7uegxN3uuOu7K6sk/3LFlurd3wBoVuvq95agYNqPnDOw6BhFYj55nAH1bYfGNu19ks2DYcHxkZsD5kDLj00X5PWSy3Or9wBQwNrUwUG0+vyu6KBtFmPKwy4nnngpZ+VO+Bo4P8BflAYvaZ8/S0AAAAASUVORK5CYII=;" vertex="1" parent="1">
          <mxGeometry x="369.91" y="340.72" width="99.06" height="39.28" as="geometry" />
        </mxCell>
        <mxCell id="n4FanAHKLCICYB6aXcxc-16" value="" style="shape=image;verticalLabelPosition=bottom;labelBackgroundColor=default;verticalAlign=top;aspect=fixed;imageAspect=0;image=data:image/png,iVBORw0KGgoAAAANSUhEUgAAAIAAAAAlCAYAAACK7+GWAAAOE0lEQVR4Ae3aZaiuxRYH8I1fxC+igiIKiiiiKKgIKoitiNjdhd0d2B3Y3d3d3d3d3d3dzuU3+H+Y87I913v2xn334R2YPTNr1qyaNWvWPO8eKH+VP/74o6j/dvnzzz/L77//PgZbY3DyaNs+RPPDLWvo/fLLL5V2ZAj/MQQcjwYD0YWiI1EY/rfffqubrDX+9ddfu03IZoOr5IQX3JGQeXziOaIOYENtsGJjf/rpp5ITmA230S1O+lpzI+W444sTjJgD2Dib/eOPP9ZNtKFgOf057T///HN1DAYHM59+1owvmzESeoyYA0RZm24jv/jiiy4KfPLJJ+X9998v3377bT3l5hMR2nXp99txt8CIOoDTLAK05fjjjy/TTDNNmWqqqcr+++9f3n777TrNURIVRA4FrF+GZoERdQAb6N7/9NNP60l/+umny2mnnVaee+65cuKJJ5addtqp3H777XXjRQEbb41rQennAEPbfKtHzAFsXu57G2tTv//++/LZZ5+V7777rtx7773lhBNOKPfcc0/d+NYBEgFEhH4ZmgVGzAGcZA5g423kDz/80GkCdtttt5UHH3ywfP755927P1dAXgb9K6Az2Th3OgdwwhRGjqGNwRlcyaa1uObga9OHF9zQaGna+Jx+a+C6ChTJ3wEHHFCWXHLJcuCBB5ZXX3210g9POGgZh4829DOXMT5taedDiwyhF1zytDwDH+6WPPj3ltgFnBwq3FYfYyW2jg7Ggbc4LTz9gSBoMX3hhReKRGyvvfYq++67bznzzDPLs88+220uHLjZQEyFZNWcEH7LLbfUBG733XcvZ5xxRj3F5pxs+MF75513yldffdWtJfQHH3xQzjrrrLLmmmuWtdZaq9xwww0dL0JHXv3UKGsceWIMvHrx0ADLOriRi17m6BN4eNYFw/AncqIvCZbzHH744WWfffapuc9rr71W4ZyQzXptbZ2ihXP33XeXI488suy9997l0EMPLTfddFO1a/SOvhmzSXQaaIk9//zzxaZtsMEGZbPNNisbb7xxWXfddctBBx1UXnrppbpx0T+h25ixCOkOf+KJJ8pxxx1Xtttuu7L66quXOeaYoyZ2nnaUVeFzqhtvvLGAGxNOMU/Ahx56qOyyyy7lggsu6K4HOPi0hSJ00KafcXSzzlx4WG+MT3DJYIy+vmou8y3PofRbOen65JNP1oi33nrrlU033bRstNFGdfzmm29We8ZekSMyatG6//7764HZddddy4YbbliWWGKJsvLKK5fzzz+/OkF0jczRW6sMMIpq83jRQgstVE+dsfsXbKWVVqobwTgRpDUOYgxG6Lvuuqs8/vjjdfzyyy9XevPMM0957LHHKsxd//HHH5fLLrusnHzyyeWbb76pihAGzXi86CASXXvttd31QE4yZCO11kSuyATOQGpwyWjeOOvIbC08hjav6JPTuNdgFWEIf/BDkwxvvfVWOeSQQ8oqq6xSDw5b3HfffWXBBResh4adyEDOHLjIbuzbiQj9zDPP1JeUw+TALLbYYmWppZYqjz76aKdveEanjGsOgKiPLltttVVZfvnlq1dhwDCXX3552WSTTSphi4QcAikxMqKM9vrrr5cXX3yxExZNYY1CDz/8cM3uKX3JJZfU6MLb77zzzupoDMOBJH6McN5555ULL7ywvPLKK50S5CRDCv5RxJxKPoaTSwQGX7/FDw1wunqKil6uMPp4ibgOGdG3CPINR2G7bOoVV1xRD5eoS+7ILxo4yewQma1RFXj65BOZ2T5wV6jvJwsvvHC5+OKL63pzcTzrrGc3teYAIejunW666Wr4thESMB4mCtg4xaJ4YwWUUscYqHEcBrTedXLMMcfUDQFDa9ZZZy2TTTZZmXbaactyyy1Xo8OXX35ZTj/99DLbbLOVGWaYoayzzjo1mlAOT4YgZ1vAYqDgvPHGG1VxTgbWblz0BFeM0edkxx57bI1WchbOIIoJqeRzCLKm5T+UvsNx8MEH18MhGqKvchCOP+ecc1Y94EVvbXTAOzbJplrLjiKnJPqqq67qHCB2Cm74DTCQcIewk+MemmKKKaoAq666ajnqqKOqgXoN0DoBxhgo4IQQ/kWOnXfeud5FrhTMv/7665oj7LnnnjUPsAbvrOck8PADV4zbjeyVpSL99UcU4cg2UkGjxUcrxrD57777br0vJ5544jL11FOXRRddtDiZkk+niW4t75bXuPSjk0SPbSS68iEy5iRfffXVZa655irnnntudUb8ya3GVtGLLoHbR5FPIij/EpFjg/CFi5cKVpNAmxZEG7X55puXKaecssw000yV2IcffliZCFMpFue0Rxhj95LQM8kkk9RT7v6XFxBOcdokiKrwxcBRIGGwFRBt82pK24fLQOjov/fee/XEugutRZNc+oMVa8ksE1977bXLpJNOWvbYY4/qGDbEfOQZbP3/CkOLLML3+uuvXyOAj174pNx8881l+umnLw5JPoWbs9aGW9/umTmysoFo5QuqBBu+Mpi9AhvjCgCUwZ900kk1JC6++OJllllmqc8LpwFjFaP0tQpYquRRYnL00UcXJ2u++earOYAnX14aRxxxRE08Q4cB9Cli0yJg5iuTnj8xZnAYx1XFCLLgGMu8orUGbTXrwDj+9ddfX3+DoL9rIDhZ08N+nId05XCuGEk3B8CLDIpnHQfw+mJ3cJFRiS5k6j0wcF1lan5cg6doVeujF3h9BZiweVdeeWUNSb7CIeYzLC+1geecc04lFGJhHmCMiTgFGV84kuVOPvnkNatl1Isuuqg+dc4+++zKE56S9Tzb+lbI8BisFe4lrmScd95569Ulcs0888w1nIMtsMACZemlly6PPPJI5Ym+2hb8yCthPeyww4qol1MV2djJOi0nd1iWXXbZjvf8889fVDxTF1lkkfrGdy2iY60qV9lhhx3KMsssUx544IGqLxkUtp5xxhnrp3A2Y2uyWKegw07G9k3LjtaRXTILFrmtyWFIP7Q6ByCgt78nidMLgee5D70rXQtRAlMECdZuVjbf2qwX6kSRU045pYZVHzy8Wb3z4VhDGTQVsFbwChzLH/TdmZdeemmVFZ8dd9yxbL/99hUmGpi77rrrqlOTGw9tDI48GTj8CiusUKv3OVjwIquNIB/dJYoOjSQOH3320lfBXYd0hR9aWq8NXzxl+z7csCMbkEniPfvss9colmeyeVWJLIEZ33rrrdXGXg7Jo9CKg0Tn2Day1BzAJI93Snikpw/i4AwsWZFUSBKVLIaDiQqmMhoj6VPaPT/33HNXZSSG22yzTX0aSlAIR6AogrZxaOn/txLF0LDOFSDKSKCMzZNPG53aNWQAtyEcRdh1ejkDXVKtCQ1y6WdtxpGhNTwYGpEBLhjbyPa9MkRJORJ52W7LLbesjhEZ4LcVDTU0XRkiIXyhn1ySYR+JfBuAq4RGu3YgRrJQ8uAZ5hTlIwSi2267bf0szLMQQcDGeiHccccdNTJgxAvdvU899VRVmve66zmP7wBCk6zXZ2Y//QqDDKFESC2ZKBdYRfibP8EhVxSXALpiFBuVVt9mwNOXMJKZDp69TrQTxGElUaIARyUjfHLhpxqTMUWfDFp4+MBRMpd1+IOx09Zbb12/BciNrPFdxDUkUrqG4YJzUMmh+90LAi18yL7GGmtUGq6U/fbbr9pXBPQNxrUWGfAM7+jRJYGE5zHuU9/hnQS/yfs9QN/9aRECWmHLN4PddtutnrqPPvqo4rmLt9hii5pI8krOIyx6/gmFK664Yv3gRHARIU9QwilokyXGrsCx/IGbzbCG5/sGIAqERjYCmTgAPq46Gb9P3q4ISSo9PAV9nBFFRMCswUuxtqVpHFhkoQ9YClnA0EiVR7CNZNChOPXUU2t+5IOcA8bx8LbWNxUb7Gq45pprqt04kCvLN5UJJpigTDTRRGXCCSesfXvjtwGHkByu88iIXuTvvgSaxEw44T02ynXgq5KM1cYTPEo4wd75Eg/RwpzTBCasWe+p5wlorUqpOJTTJtwpaKZPMIrDj5Ax4mAtXLzJr9pAp5gzo6FkXr/dIKdDpHDFkU2EQ09k47j+GSVRD42sZ8CMA2uNSx8FDG7bj/GtZ28Hw2Hw/UWkxFfksWFkQUv1ady3DU4gaeSsXi2rrbZad3WzuaTURyBXLTsodKaHNnJqle7n4EyaIBgBwQicGgNpWzwCBgc81XrFnDXB0UYxuHhRVsla7T8p8NAKL3206BAaHAEP45Z3+vCDi2dw9Vs5wyu2MY9vy9+4lcVGplivmg8/LfnYJzKDJY/SB2/n0APH15dCehgraME1R8604dnKDr+LACZCCLEYMcqFQeXSeDc4ptYqxip6BMGYMhEADG10BysROLIMhtPC4KMHHw9ViQzpO2lkAlf0yR15sy5yVqS/nDf6BSdzWnzNx05aVUG77YMZs0FksTbXIPq9coUOWpnXh2fz0YsO2uDDNcf2wbEme1IROUC7cQGCxaBaBiZoiGvBWoZtP3S0mCoEildnHix8ggM2roUMWa8lo0J2c2rLj2EiX3iCpeiHHpj1gYVecNs2cy0tm9zSgk+u2JEcbbTIPBrwbJzSqwObZlMjnzX6Lb/YAA1wFU73DARgHMDe8k9hvet6x4PR6cUZzvG/zW9ssv+dLC287Y+NVjs3Lmva9fVDUABDJRY6/Xb0WKBLAvubP3o2bTgl7f4jaDiJ9mmNHguMcQWMHrH7kg6XBToHcAW0WeNwMejT+f+2wBg5wN+9Av6/VehLNxQLdDmACNC+W4dCtL929Fig+w4wekTuSzqcFuhygOEk2qc1eizwH5jkiwh0Chd5AAAAAElFTkSuQmCC;" vertex="1" parent="1">
          <mxGeometry x="521.94" y="351.5" width="76.11" height="22" as="geometry" />
        </mxCell>
        <mxCell id="n4FanAHKLCICYB6aXcxc-19" style="edgeStyle=orthogonalEdgeStyle;rounded=0;orthogonalLoop=1;jettySize=auto;html=1;exitX=0.5;exitY=1;exitDx=0;exitDy=0;" edge="1" parent="1" source="n4FanAHKLCICYB6aXcxc-17" target="n4FanAHKLCICYB6aXcxc-3">
          <mxGeometry relative="1" as="geometry" />
        </mxCell>
        <mxCell id="n4FanAHKLCICYB6aXcxc-17" value="введення x,t" style="shape=parallelogram;perimeter=parallelogramPerimeter;whiteSpace=wrap;html=1;fixedSize=1;" vertex="1" parent="1">
          <mxGeometry x="354" y="-10" width="120" height="60" as="geometry" />
        </mxCell>
        <mxCell id="n4FanAHKLCICYB6aXcxc-22" style="edgeStyle=orthogonalEdgeStyle;rounded=0;orthogonalLoop=1;jettySize=auto;html=1;exitX=0.5;exitY=1;exitDx=0;exitDy=0;" edge="1" parent="1" source="n4FanAHKLCICYB6aXcxc-20" target="n4FanAHKLCICYB6aXcxc-2">
          <mxGeometry relative="1" as="geometry" />
        </mxCell>
        <mxCell id="n4FanAHKLCICYB6aXcxc-20" value="виведення y" style="shape=parallelogram;perimeter=parallelogramPerimeter;whiteSpace=wrap;html=1;fixedSize=1;" vertex="1" parent="1">
          <mxGeometry x="354" y="410" width="120" height="60" as="geometry" />
        </mxCell>
        <mxCell id="n4FanAHKLCICYB6aXcxc-49" style="edgeStyle=orthogonalEdgeStyle;rounded=0;orthogonalLoop=1;jettySize=auto;html=1;entryX=0.5;entryY=0;entryDx=0;entryDy=0;" edge="1" parent="1" source="n4FanAHKLCICYB6aXcxc-47" target="n4FanAHKLCICYB6aXcxc-6">
          <mxGeometry relative="1" as="geometry" />
        </mxCell>
        <mxCell id="n4FanAHKLCICYB6aXcxc-50" style="edgeStyle=orthogonalEdgeStyle;rounded=0;orthogonalLoop=1;jettySize=auto;html=1;" edge="1" parent="1" source="n4FanAHKLCICYB6aXcxc-47" target="n4FanAHKLCICYB6aXcxc-5">
          <mxGeometry relative="1" as="geometry" />
        </mxCell>
        <mxCell id="n4FanAHKLCICYB6aXcxc-51" style="edgeStyle=orthogonalEdgeStyle;rounded=0;orthogonalLoop=1;jettySize=auto;html=1;entryX=0.5;entryY=0;entryDx=0;entryDy=0;" edge="1" parent="1" source="n4FanAHKLCICYB6aXcxc-47" target="n4FanAHKLCICYB6aXcxc-7">
          <mxGeometry relative="1" as="geometry" />
        </mxCell>
        <mxCell id="n4FanAHKLCICYB6aXcxc-52" style="edgeStyle=orthogonalEdgeStyle;rounded=0;orthogonalLoop=1;jettySize=auto;html=1;exitX=1;exitY=0;exitDx=0;exitDy=0;" edge="1" parent="1" source="n4FanAHKLCICYB6aXcxc-47" target="n4FanAHKLCICYB6aXcxc-2">
          <mxGeometry relative="1" as="geometry">
            <mxPoint x="650" y="540" as="targetPoint" />
            <Array as="points">
              <mxPoint x="651" y="190" />
              <mxPoint x="651" y="530" />
            </Array>
          </mxGeometry>
        </mxCell>
        <mxCell id="n4FanAHKLCICYB6aXcxc-47" value="n" style="rhombus;whiteSpace=wrap;html=1;" vertex="1" parent="1">
          <mxGeometry x="374" y="170" width="80" height="80" as="geometry" />
        </mxCell>
        <mxCell id="n4FanAHKLCICYB6aXcxc-53" value="1" style="text;html=1;align=center;verticalAlign=middle;resizable=0;points=[];autosize=1;strokeColor=none;fillColor=none;" vertex="1" parent="1">
          <mxGeometry x="305" y="178" width="30" height="30" as="geometry" />
        </mxCell>
        <mxCell id="n4FanAHKLCICYB6aXcxc-54" value="2" style="text;html=1;align=center;verticalAlign=middle;resizable=0;points=[];autosize=1;strokeColor=none;fillColor=none;" vertex="1" parent="1">
          <mxGeometry x="414" y="278" width="30" height="30" as="geometry" />
        </mxCell>
        <mxCell id="n4FanAHKLCICYB6aXcxc-55" value="3" style="text;html=1;align=center;verticalAlign=middle;resizable=0;points=[];autosize=1;strokeColor=none;fillColor=none;" vertex="1" parent="1">
          <mxGeometry x="555" y="248" width="30" height="30" as="geometry" />
        </mxCell>
        <mxCell id="n4FanAHKLCICYB6aXcxc-56" value="default" style="text;html=1;align=center;verticalAlign=middle;resizable=0;points=[];autosize=1;strokeColor=none;fillColor=none;" vertex="1" parent="1">
          <mxGeometry x="490" y="160" width="60" height="30" as="geometry" />
        </mxCell>
      </root>
    </mxGraphModel>
  </diagram>
</mxfile>
